<mxfile host="app.diagrams.net" agent="Mozilla/5.0 (Windows NT 10.0; Win64; x64) AppleWebKit/537.36 (KHTML, like Gecko) Chrome/141.0.0.0 Safari/537.36" version="28.2.5">
  <diagram name="PÃ¡gina-1" id="FzoDMum-OTxFB8bTTMTe">
    <mxGraphModel dx="872" dy="473" grid="1" gridSize="10" guides="1" tooltips="1" connect="1" arrows="1" fold="1" page="1" pageScale="1" pageWidth="827" pageHeight="1169" math="0" shadow="0">
      <root>
        <mxCell id="0" />
        <mxCell id="1" parent="0" />
        <mxCell id="wDcv5NIvtFI6eVPyMwpr-12" value="" style="group;aspect=fixed;fillColor=#E6D0DE;strokeColor=#9673a6;" parent="1" vertex="1" connectable="0">
          <mxGeometry x="80" y="100" width="640" height="190" as="geometry" />
        </mxCell>
        <mxCell id="wDcv5NIvtFI6eVPyMwpr-8" value="" style="verticalLabelPosition=bottom;verticalAlign=top;html=1;shape=mxgraph.basic.rect;fillColor2=none;strokeWidth=1;size=20;indent=5;fillColor=#e1d5e7;strokeColor=none;shadow=0;gradientColor=light-dark(#db9ce8, #ededed);gradientDirection=east;" parent="wDcv5NIvtFI6eVPyMwpr-12" vertex="1">
          <mxGeometry width="640" height="190" as="geometry" />
        </mxCell>
        <mxCell id="wDcv5NIvtFI6eVPyMwpr-1" value="Template" style="sketch=0;outlineConnect=0;fontColor=#232F3E;gradientColor=none;fillColor=#E7157B;strokeColor=none;dashed=0;verticalLabelPosition=bottom;verticalAlign=top;align=center;html=1;fontSize=12;fontStyle=0;aspect=fixed;pointerEvents=1;shape=mxgraph.aws4.template;" parent="wDcv5NIvtFI6eVPyMwpr-12" vertex="1">
          <mxGeometry x="20" y="50" width="83.33" height="100" as="geometry" />
        </mxCell>
        <mxCell id="wDcv5NIvtFI6eVPyMwpr-3" value="Stack" style="outlineConnect=0;dashed=0;verticalLabelPosition=bottom;verticalAlign=top;align=center;html=1;shape=mxgraph.aws3.stack_aws_cloudformation;fillColor=#759C3E;gradientColor=none;" parent="wDcv5NIvtFI6eVPyMwpr-12" vertex="1">
          <mxGeometry x="490" y="60" width="100" height="80" as="geometry" />
        </mxCell>
        <mxCell id="wDcv5NIvtFI6eVPyMwpr-4" value="CloudFormation" style="outlineConnect=0;dashed=0;verticalLabelPosition=bottom;verticalAlign=top;align=center;html=1;shape=mxgraph.aws3.cloudformation;fillColor=#759C3E;gradientColor=none;" parent="wDcv5NIvtFI6eVPyMwpr-12" vertex="1">
          <mxGeometry x="240" y="40" width="110" height="110" as="geometry" />
        </mxCell>
        <mxCell id="wDcv5NIvtFI6eVPyMwpr-7" value="" style="shape=singleArrow;whiteSpace=wrap;html=1;fillColor=#E6D0DE;" parent="wDcv5NIvtFI6eVPyMwpr-12" vertex="1">
          <mxGeometry x="370" y="75" width="100" height="55" as="geometry" />
        </mxCell>
        <mxCell id="wDcv5NIvtFI6eVPyMwpr-9" value="" style="outlineConnect=0;dashed=0;verticalLabelPosition=bottom;verticalAlign=top;align=center;html=1;shape=mxgraph.aws3.cloud_2;fillColor=light-dark(#2b1c12, #bd5c17);gradientColor=none;" parent="wDcv5NIvtFI6eVPyMwpr-12" vertex="1">
          <mxGeometry width="40" height="30" as="geometry" />
        </mxCell>
        <mxCell id="wDcv5NIvtFI6eVPyMwpr-6" style="edgeStyle=orthogonalEdgeStyle;rounded=0;orthogonalLoop=1;jettySize=auto;html=1;exitX=0;exitY=0;exitDx=21;exitDy=21;exitPerimeter=0;entryX=0;entryY=0;entryDx=29;entryDy=29;entryPerimeter=0;" parent="wDcv5NIvtFI6eVPyMwpr-12" edge="1">
          <mxGeometry relative="1" as="geometry">
            <mxPoint x="161" y="101" as="sourcePoint" />
            <mxPoint x="169" y="109" as="targetPoint" />
          </mxGeometry>
        </mxCell>
        <mxCell id="njCElY9v7r28KrEQnc6B-1" value="" style="shape=singleArrow;whiteSpace=wrap;html=1;fillColor=#E6D0DE;" parent="wDcv5NIvtFI6eVPyMwpr-12" vertex="1">
          <mxGeometry x="120" y="72.5" width="100" height="55" as="geometry" />
        </mxCell>
      </root>
    </mxGraphModel>
  </diagram>
</mxfile>
